<svg xmlns="http://www.w3.org/2000/svg" xmlns:xlink="http://www.w3.org/1999/xlink" width="500" zoomAndPan="magnify" viewBox="0 0 375 374.999991" height="500" preserveAspectRatio="xMidYMid meet" version="1.0"><defs><g/></defs><path fill="#d84204" d="M 269.941406 218.128906 C 271.011719 220.15625 271.621094 222.46875 271.621094 224.914062 C 271.621094 228.839844 270.066406 232.402344 267.535156 235.035156 C 267.621094 242.40625 264.421875 249.960938 259.304688 255.226562 C 254.207031 260.46875 247.183594 263.726562 239.460938 263.726562 L 135.535156 263.726562 C 127.8125 263.726562 120.789062 260.46875 115.691406 255.226562 C 110.660156 250.050781 107.53125 242.929688 107.480469 235.09375 L 107.480469 235.054688 C 104.9375 232.417969 103.378906 228.847656 103.378906 224.914062 C 103.378906 222.46875 103.984375 220.144531 105.058594 218.121094 C 108.148438 212.289062 115.785156 211.375 120.902344 214.980469 C 122.671875 216.230469 124.269531 217.808594 125.71875 219.605469 L 139.148438 236.191406 C 159.027344 216.425781 177.226562 213.867188 218.402344 213.707031 C 229.890625 213.664062 241.839844 214.625 251.40625 221.683594 C 257.09375 225.878906 260.21875 229.390625 266.140625 225.320312 C 268.574219 223.648438 269.804688 221.007812 269.941406 218.128906 Z M 269.941406 218.128906 " fill-opacity="1" fill-rule="nonzero"/><path fill="#d84204" d="M 110.933594 165.433594 L 263.746094 165.433594 C 265.609375 165.433594 267.148438 164.082031 267.347656 162.34375 C 271.316406 144.230469 259.8125 130.765625 241.214844 122.191406 C 225.855469 115.101562 205.503906 111.402344 185.371094 111.277344 C 165.214844 111.148438 145.144531 114.617188 130.386719 121.878906 C 113.152344 130.351562 102.972656 143.859375 107.402344 162.707031 C 107.773438 164.328125 109.277344 165.425781 110.933594 165.425781 Z M 168.851562 127.535156 C 168.066406 127.535156 167.425781 126.917969 167.425781 126.164062 C 167.425781 125.398438 168.066406 124.789062 168.851562 124.789062 C 169.648438 124.789062 170.289062 125.398438 170.289062 126.164062 C 170.289062 126.917969 169.648438 127.535156 168.851562 127.535156 Z M 240.480469 148.265625 C 239.679688 148.265625 239.03125 147.640625 239.03125 146.863281 C 239.03125 146.101562 239.679688 145.480469 240.480469 145.480469 C 241.277344 145.480469 241.925781 146.101562 241.925781 146.863281 C 241.925781 147.640625 241.277344 148.265625 240.480469 148.265625 Z M 211.402344 151.4375 C 211.402344 150.679688 212.046875 150.070312 212.828125 150.070312 C 213.613281 150.070312 214.257812 150.679688 214.257812 151.4375 C 214.257812 152.199219 213.613281 152.8125 212.828125 152.8125 C 212.046875 152.8125 211.402344 152.199219 211.402344 151.4375 Z M 219.53125 134.191406 C 219.53125 133.425781 220.183594 132.800781 220.976562 132.800781 C 221.777344 132.800781 222.425781 133.425781 222.425781 134.191406 C 222.425781 134.960938 221.777344 135.585938 220.976562 135.585938 C 220.183594 135.585938 219.53125 134.960938 219.53125 134.191406 Z M 176.207031 151.488281 C 176.207031 150.730469 176.847656 150.113281 177.632812 150.113281 C 178.417969 150.113281 179.058594 150.730469 179.058594 151.488281 C 179.058594 152.238281 178.417969 152.855469 177.632812 152.855469 C 176.847656 152.855469 176.207031 152.238281 176.207031 151.488281 Z M 161.273438 141.105469 C 161.273438 140.347656 161.914062 139.730469 162.707031 139.730469 C 163.492188 139.730469 164.132812 140.347656 164.132812 141.105469 C 164.132812 141.859375 163.492188 142.472656 162.707031 142.472656 C 161.914062 142.472656 161.273438 141.859375 161.273438 141.105469 Z M 150.285156 133.898438 C 149.066406 133.898438 148.082031 132.953125 148.082031 131.777344 C 148.082031 130.605469 149.066406 129.652344 150.285156 129.652344 C 151.507812 129.652344 152.496094 130.605469 152.496094 131.777344 C 152.496094 132.953125 151.507812 133.898438 150.285156 133.898438 Z M 150.324219 150.804688 C 151.117188 150.804688 151.75 151.421875 151.75 152.179688 C 151.75 152.941406 151.117188 153.554688 150.324219 153.554688 C 149.539062 153.554688 148.90625 152.941406 148.90625 152.179688 C 148.90625 151.421875 149.539062 150.804688 150.324219 150.804688 Z M 135.308594 143.300781 C 136.101562 143.300781 136.742188 143.917969 136.742188 144.667969 C 136.742188 145.429688 136.101562 146.042969 135.308594 146.042969 C 134.523438 146.042969 133.882812 145.429688 133.882812 144.667969 C 133.882812 143.917969 134.523438 143.300781 135.308594 143.300781 Z M 196.714844 139.097656 C 196.714844 138.335938 197.359375 137.722656 198.144531 137.722656 C 198.929688 137.722656 199.570312 138.335938 199.570312 139.097656 C 199.570312 139.847656 198.929688 140.464844 198.144531 140.464844 C 197.359375 140.464844 196.714844 139.847656 196.714844 139.097656 Z M 200.167969 127.753906 C 200.167969 126.976562 200.808594 126.359375 201.605469 126.359375 C 202.40625 126.359375 203.054688 126.976562 203.054688 127.753906 C 203.054688 128.519531 202.40625 129.144531 201.605469 129.144531 C 200.808594 129.144531 200.167969 128.519531 200.167969 127.753906 Z M 185.523438 130.023438 C 185.523438 129.550781 185.921875 129.171875 186.410156 129.171875 C 186.898438 129.171875 187.296875 129.550781 187.296875 130.023438 C 187.296875 130.496094 186.898438 130.875 186.410156 130.875 C 185.921875 130.875 185.523438 130.496094 185.523438 130.023438 Z M 185.523438 130.023438 " fill-opacity="1" fill-rule="evenodd"/><g fill="#e5ded6" fill-opacity="1"><g transform="translate(140.472328, 206.372067)"><g><path d="M 9.9375 -7.515625 C 10.175781 -7.515625 10.296875 -7.429688 10.296875 -7.265625 C 10.296875 -7.046875 10.128906 -6.710938 9.796875 -6.265625 C 9.523438 -5.910156 9.140625 -5.671875 8.640625 -5.546875 C 8.492188 -5.503906 8.359375 -5.484375 8.234375 -5.484375 C 8.109375 -5.484375 7.972656 -5.492188 7.828125 -5.515625 C 7.460938 -5.554688 7.003906 -5.585938 6.453125 -5.609375 C 6.015625 -4.835938 5.691406 -4.242188 5.484375 -3.828125 L 6.3125 -3.859375 C 6.476562 -3.847656 6.679688 -3.859375 6.921875 -3.890625 L 7.46875 -3.9375 C 7.570312 -3.945312 7.644531 -3.953125 7.6875 -3.953125 C 7.832031 -3.960938 7.921875 -3.941406 7.953125 -3.890625 C 8.023438 -3.796875 8.0625 -3.679688 8.0625 -3.546875 C 8.0625 -3.421875 8.050781 -3.3125 8.03125 -3.21875 C 8.007812 -3.132812 7.984375 -3.050781 7.953125 -2.96875 C 7.878906 -2.78125 7.800781 -2.648438 7.71875 -2.578125 C 7.519531 -2.429688 7.195312 -2.359375 6.75 -2.359375 C 6.664062 -2.359375 6.582031 -2.359375 6.5 -2.359375 L 4.859375 -2.5 C 4.585938 -1.84375 4.375 -1.203125 4.21875 -0.578125 C 4.09375 -0.109375 3.632812 0.125 2.84375 0.125 C 2.175781 0.125 1.753906 -0.0234375 1.578125 -0.328125 C 1.515625 -0.429688 1.488281 -0.53125 1.5 -0.625 C 1.519531 -0.71875 1.554688 -0.820312 1.609375 -0.9375 C 1.660156 -1.050781 1.734375 -1.195312 1.828125 -1.375 L 2.59375 -2.671875 C 2.582031 -2.671875 2.535156 -2.675781 2.453125 -2.6875 C 2.367188 -2.695312 2.3125 -2.707031 2.28125 -2.71875 C 2.175781 -2.75 2.09375 -2.804688 2.03125 -2.890625 C 1.976562 -2.972656 1.953125 -3.0625 1.953125 -3.15625 C 1.953125 -3.34375 2.003906 -3.484375 2.109375 -3.578125 C 2.210938 -3.671875 2.320312 -3.722656 2.4375 -3.734375 C 2.5625 -3.742188 2.691406 -3.753906 2.828125 -3.765625 L 3.265625 -3.765625 C 3.816406 -4.617188 4.21875 -5.222656 4.46875 -5.578125 C 3.582031 -5.515625 2.8125 -5.304688 2.15625 -4.953125 C 1.96875 -4.859375 1.816406 -4.757812 1.703125 -4.65625 C 1.597656 -4.5625 1.503906 -4.515625 1.421875 -4.515625 C 1.347656 -4.515625 1.28125 -4.523438 1.21875 -4.546875 C 1.164062 -4.566406 1.117188 -4.597656 1.078125 -4.640625 C 0.972656 -4.734375 0.921875 -4.832031 0.921875 -4.9375 C 0.921875 -5.039062 0.953125 -5.140625 1.015625 -5.234375 C 1.691406 -6.285156 2.453125 -6.929688 3.296875 -7.171875 C 3.585938 -7.242188 3.910156 -7.28125 4.265625 -7.28125 C 5.742188 -7.28125 6.914062 -7.296875 7.78125 -7.328125 C 8.644531 -7.367188 9.117188 -7.394531 9.203125 -7.40625 L 9.703125 -7.484375 C 9.785156 -7.503906 9.863281 -7.515625 9.9375 -7.515625 Z M 9.9375 -7.515625 "/></g></g></g><g fill="#e5ded6" fill-opacity="1"><g transform="translate(149.577247, 206.372067)"><g><path d="M -0.296875 -1.765625 C -0.359375 -1.765625 -0.421875 -1.78125 -0.484375 -1.8125 C -0.554688 -1.84375 -0.617188 -1.894531 -0.671875 -1.96875 C -0.796875 -2.125 -0.859375 -2.34375 -0.859375 -2.625 C -0.859375 -2.90625 -0.6875 -3.265625 -0.34375 -3.703125 C -0.0078125 -4.117188 0.378906 -4.476562 0.828125 -4.78125 C 1.304688 -5.113281 1.71875 -5.28125 2.0625 -5.28125 C 2.363281 -5.28125 2.570312 -5.191406 2.6875 -5.015625 L 2.75 -4.90625 C 2.8125 -4.8125 2.867188 -4.765625 2.921875 -4.765625 C 2.984375 -4.765625 3.078125 -4.769531 3.203125 -4.78125 L 3.953125 -4.84375 C 4.078125 -4.851562 4.171875 -4.859375 4.234375 -4.859375 C 4.304688 -4.859375 4.382812 -4.832031 4.46875 -4.78125 C 4.5625 -4.726562 4.640625 -4.664062 4.703125 -4.59375 C 4.847656 -4.414062 4.921875 -4.21875 4.921875 -4 C 4.921875 -3.78125 4.675781 -3.429688 4.1875 -2.953125 L 3.84375 -2.59375 C 3.582031 -2.332031 3.453125 -2.164062 3.453125 -2.09375 C 3.453125 -2.03125 3.484375 -1.972656 3.546875 -1.921875 C 3.617188 -1.867188 3.691406 -1.84375 3.765625 -1.84375 C 3.835938 -1.84375 3.921875 -1.863281 4.015625 -1.90625 C 4.109375 -1.945312 4.222656 -2.007812 4.359375 -2.09375 C 4.503906 -2.175781 4.664062 -2.273438 4.84375 -2.390625 C 5.332031 -2.710938 5.660156 -2.929688 5.828125 -3.046875 L 6.28125 -3.375 C 6.582031 -3.582031 6.796875 -3.6875 6.921875 -3.6875 C 7.054688 -3.6875 7.160156 -3.660156 7.234375 -3.609375 C 7.316406 -3.554688 7.359375 -3.457031 7.359375 -3.3125 C 7.359375 -3.175781 7.289062 -2.992188 7.15625 -2.765625 C 7.019531 -2.535156 6.867188 -2.335938 6.703125 -2.171875 C 6.535156 -2.003906 6.375 -1.847656 6.21875 -1.703125 C 6.070312 -1.566406 5.894531 -1.414062 5.6875 -1.25 C 5.476562 -1.082031 5.242188 -0.910156 4.984375 -0.734375 C 4.734375 -0.566406 4.46875 -0.414062 4.1875 -0.28125 C 3.539062 0.03125 2.953125 0.1875 2.421875 0.1875 C 1.640625 0.1875 1.160156 -0.015625 0.984375 -0.421875 C 0.929688 -0.546875 0.90625 -0.679688 0.90625 -0.828125 C 0.90625 -0.984375 0.929688 -1.144531 0.984375 -1.3125 C 1.046875 -1.488281 1.125 -1.660156 1.21875 -1.828125 C 1.40625 -2.171875 1.625 -2.472656 1.875 -2.734375 C 2.09375 -2.960938 2.203125 -3.097656 2.203125 -3.140625 C 2.203125 -3.203125 2.160156 -3.242188 2.078125 -3.265625 C 2.003906 -3.285156 1.894531 -3.296875 1.75 -3.296875 C 1.675781 -3.296875 1.535156 -3.203125 1.328125 -3.015625 L 0.796875 -2.53125 C 0.242188 -2.019531 -0.117188 -1.765625 -0.296875 -1.765625 Z M -0.296875 -1.765625 "/></g></g></g><g fill="#e5ded6" fill-opacity="1"><g transform="translate(155.95069, 206.372067)"><g><path d="M 7.421875 -3.9375 C 7.585938 -3.9375 7.671875 -3.84375 7.671875 -3.65625 C 7.671875 -3.519531 7.625 -3.351562 7.53125 -3.15625 C 7.445312 -2.96875 7.320312 -2.785156 7.15625 -2.609375 C 7 -2.441406 6.8125 -2.265625 6.59375 -2.078125 C 6.382812 -1.898438 6.132812 -1.710938 5.84375 -1.515625 C 5.5625 -1.316406 5.25 -1.117188 4.90625 -0.921875 C 4.5625 -0.722656 4.195312 -0.546875 3.8125 -0.390625 C 2.957031 -0.0351562 2.128906 0.140625 1.328125 0.140625 C 0.722656 0.140625 0.191406 -0.0195312 -0.265625 -0.34375 C -0.742188 -0.675781 -0.984375 -1.082031 -0.984375 -1.5625 C -0.984375 -2.300781 -0.582031 -3.007812 0.21875 -3.6875 C 0.914062 -4.257812 1.734375 -4.707031 2.671875 -5.03125 C 3.242188 -5.226562 3.726562 -5.328125 4.125 -5.328125 C 4.445312 -5.328125 4.71875 -5.242188 4.9375 -5.078125 C 5.175781 -4.910156 5.296875 -4.679688 5.296875 -4.390625 C 5.296875 -3.941406 4.9375 -3.441406 4.21875 -2.890625 C 4.101562 -2.796875 4 -2.71875 3.90625 -2.65625 L 3.71875 -2.53125 C 3.351562 -2.28125 2.804688 -2 2.078125 -1.6875 C 2.304688 -1.570312 2.515625 -1.515625 2.703125 -1.515625 C 2.898438 -1.515625 3.078125 -1.535156 3.234375 -1.578125 C 3.390625 -1.628906 3.566406 -1.695312 3.765625 -1.78125 C 3.960938 -1.863281 4.171875 -1.960938 4.390625 -2.078125 C 4.617188 -2.203125 4.847656 -2.335938 5.078125 -2.484375 C 5.585938 -2.796875 6.03125 -3.117188 6.40625 -3.453125 C 6.601562 -3.640625 6.851562 -3.785156 7.15625 -3.890625 C 7.257812 -3.921875 7.347656 -3.9375 7.421875 -3.9375 Z M 1.5 -2.4375 L 1.796875 -2.578125 C 1.890625 -2.628906 1.972656 -2.675781 2.046875 -2.71875 C 2.773438 -3.132812 3.1875 -3.390625 3.28125 -3.484375 C 3.382812 -3.585938 3.4375 -3.65625 3.4375 -3.6875 C 3.4375 -3.726562 3.425781 -3.773438 3.40625 -3.828125 C 3.382812 -3.878906 3.351562 -3.921875 3.3125 -3.953125 C 3.226562 -4.054688 3.140625 -4.109375 3.046875 -4.109375 C 2.953125 -4.109375 2.84375 -4.085938 2.71875 -4.046875 C 2.601562 -4.015625 2.488281 -3.96875 2.375 -3.90625 C 2.257812 -3.84375 2.144531 -3.765625 2.03125 -3.671875 C 1.925781 -3.585938 1.832031 -3.5 1.75 -3.40625 C 1.5625 -3.175781 1.46875 -2.976562 1.46875 -2.8125 C 1.46875 -2.644531 1.476562 -2.519531 1.5 -2.4375 Z M 1.5 -2.4375 "/></g></g></g><g fill="#e5ded6" fill-opacity="1"><g transform="translate(162.324133, 206.372067)"><g><path d="M 3.40625 -5.21875 C 3.4375 -5.144531 3.453125 -5.050781 3.453125 -4.9375 C 3.453125 -4.820312 3.394531 -4.691406 3.28125 -4.546875 C 3.375 -4.453125 3.488281 -4.335938 3.625 -4.203125 C 3.769531 -4.078125 3.914062 -3.941406 4.0625 -3.796875 C 4.382812 -3.429688 4.546875 -3.078125 4.546875 -2.734375 C 4.546875 -2.515625 4.394531 -2.25 4.09375 -1.9375 C 4 -1.832031 3.894531 -1.738281 3.78125 -1.65625 C 4.15625 -1.789062 4.601562 -2.070312 5.125 -2.5 L 5.75 -3.015625 C 6.113281 -3.316406 6.359375 -3.488281 6.484375 -3.53125 C 6.609375 -3.582031 6.71875 -3.609375 6.8125 -3.609375 C 6.914062 -3.609375 7.015625 -3.582031 7.109375 -3.53125 C 7.203125 -3.488281 7.25 -3.410156 7.25 -3.296875 C 7.25 -3.179688 7.234375 -3.070312 7.203125 -2.96875 C 7.171875 -2.863281 7.128906 -2.765625 7.078125 -2.671875 C 7.003906 -2.546875 6.898438 -2.414062 6.765625 -2.28125 C 6.390625 -1.925781 6.023438 -1.597656 5.671875 -1.296875 C 5.316406 -1.003906 4.953125 -0.753906 4.578125 -0.546875 C 3.785156 -0.0976562 2.90625 0.125 1.9375 0.125 C 1.394531 0.125 0.925781 -0.015625 0.53125 -0.296875 C 0.375 -0.410156 0.25 -0.53125 0.15625 -0.65625 C 0.0703125 -0.78125 0.03125 -0.875 0.03125 -0.9375 C 0.03125 -1.007812 0.0507812 -1.082031 0.09375 -1.15625 C 0.144531 -1.238281 0.207031 -1.316406 0.28125 -1.390625 C 0.363281 -1.472656 0.453125 -1.554688 0.546875 -1.640625 C 0.648438 -1.722656 0.757812 -1.796875 0.875 -1.859375 C 1.125 -2.015625 1.304688 -2.09375 1.421875 -2.09375 C 1.546875 -2.09375 1.640625 -2.078125 1.703125 -2.046875 C 1.773438 -2.015625 1.835938 -1.976562 1.890625 -1.9375 C 2.035156 -1.84375 2.140625 -1.796875 2.203125 -1.796875 C 2.347656 -1.796875 2.421875 -1.894531 2.421875 -2.09375 C 2.421875 -2.28125 2.320312 -2.503906 2.125 -2.765625 C 2.039062 -2.867188 1.957031 -2.972656 1.875 -3.078125 C 1.789062 -3.179688 1.71875 -3.285156 1.65625 -3.390625 C 1.539062 -3.253906 1.398438 -3.117188 1.234375 -2.984375 L 0.71875 -2.53125 C 0.351562 -2.21875 0.015625 -2.070312 -0.296875 -2.09375 C -0.472656 -2.101562 -0.5625 -2.300781 -0.5625 -2.6875 C -0.5625 -2.75 -0.554688 -2.816406 -0.546875 -2.890625 C -0.523438 -2.992188 -0.414062 -3.125 -0.21875 -3.28125 C -0.0195312 -3.445312 0.125 -3.554688 0.21875 -3.609375 C 0.3125 -3.671875 0.390625 -3.722656 0.453125 -3.765625 L 1.03125 -4.15625 C 1.03125 -4.519531 1.238281 -4.851562 1.65625 -5.15625 C 2.0625 -5.445312 2.457031 -5.59375 2.84375 -5.59375 C 3.09375 -5.59375 3.28125 -5.46875 3.40625 -5.21875 Z M 3.40625 -5.21875 "/></g></g></g><g fill="#e5ded6" fill-opacity="1"><g transform="translate(168.697577, 206.372067)"><g><path d="M 2.21875 -3.46875 C 2.21875 -3.34375 2.269531 -3.28125 2.375 -3.28125 C 2.488281 -3.28125 2.640625 -3.359375 2.828125 -3.515625 L 3.296875 -3.921875 C 3.785156 -4.335938 4.253906 -4.546875 4.703125 -4.546875 C 4.992188 -4.546875 5.25 -4.304688 5.46875 -3.828125 C 5.664062 -3.410156 5.84375 -2.789062 6 -1.96875 C 6.03125 -1.832031 6.054688 -1.765625 6.078125 -1.765625 C 6.097656 -1.765625 6.148438 -1.796875 6.234375 -1.859375 C 6.316406 -1.929688 6.421875 -2.015625 6.546875 -2.109375 C 7.421875 -2.859375 7.925781 -3.273438 8.0625 -3.359375 C 8.195312 -3.453125 8.289062 -3.515625 8.34375 -3.546875 C 8.40625 -3.578125 8.460938 -3.601562 8.515625 -3.625 C 8.660156 -3.675781 8.773438 -3.703125 8.859375 -3.703125 C 9.015625 -3.703125 9.09375 -3.617188 9.09375 -3.453125 C 9.09375 -3.203125 8.925781 -2.835938 8.59375 -2.359375 C 8.226562 -1.828125 7.742188 -1.296875 7.140625 -0.765625 C 6.429688 -0.140625 5.8125 0.171875 5.28125 0.171875 C 4.71875 0.171875 4.34375 -0.203125 4.15625 -0.953125 C 4.101562 -1.140625 4.0625 -1.316406 4.03125 -1.484375 L 3.953125 -1.90625 C 3.929688 -2.019531 3.898438 -2.078125 3.859375 -2.078125 C 3.828125 -2.078125 3.757812 -2.023438 3.65625 -1.921875 L 3.265625 -1.515625 C 2.816406 -1.066406 2.441406 -0.738281 2.140625 -0.53125 C 1.535156 -0.101562 1.007812 0.109375 0.5625 0.109375 C 0.0195312 0.109375 -0.300781 -0.164062 -0.40625 -0.71875 C -0.425781 -0.882812 -0.4375 -1.09375 -0.4375 -1.34375 C -0.4375 -1.59375 -0.398438 -1.898438 -0.328125 -2.265625 C -0.265625 -2.628906 -0.171875 -2.992188 -0.046875 -3.359375 C 0.222656 -4.140625 0.5625 -4.804688 0.96875 -5.359375 L 1.453125 -5.984375 C 2.609375 -7.492188 3.570312 -8.25 4.34375 -8.25 C 4.519531 -8.25 4.644531 -8.164062 4.71875 -8 C 4.75 -7.945312 4.765625 -7.863281 4.765625 -7.75 C 4.765625 -7.644531 4.71875 -7.503906 4.625 -7.328125 C 4.53125 -7.160156 4.414062 -6.984375 4.28125 -6.796875 C 4.144531 -6.617188 4 -6.4375 3.84375 -6.25 C 3.6875 -6.0625 3.546875 -5.878906 3.421875 -5.703125 L 3.015625 -5.109375 C 2.484375 -4.328125 2.21875 -3.78125 2.21875 -3.46875 Z M 2.21875 -3.46875 "/></g></g></g><g fill="#e5ded6" fill-opacity="1"><g transform="translate(176.897359, 206.372067)"><g/></g></g><g fill="#e5ded6" fill-opacity="1"><g transform="translate(181.455175, 206.372067)"><g><path d="M 6.40625 0.03125 C 5.625 0.175781 4.90625 0.25 4.25 0.25 C 3.59375 0.25 3.0625 0.203125 2.65625 0.109375 C 2.257812 0.015625 1.921875 -0.117188 1.640625 -0.296875 C 1.078125 -0.628906 0.796875 -1.066406 0.796875 -1.609375 C 0.796875 -2.628906 1.90625 -3.515625 4.125 -4.265625 C 4.195312 -5.253906 4.59375 -6.046875 5.3125 -6.640625 C 5.976562 -7.179688 6.738281 -7.453125 7.59375 -7.453125 C 8.195312 -7.453125 8.675781 -7.34375 9.03125 -7.125 C 9.351562 -6.914062 9.515625 -6.675781 9.515625 -6.40625 C 9.515625 -6.144531 9.425781 -5.898438 9.25 -5.671875 C 9.082031 -5.441406 8.851562 -5.21875 8.5625 -5 C 8.019531 -4.59375 7.273438 -4.191406 6.328125 -3.796875 C 6.640625 -2.941406 7.179688 -2.210938 7.953125 -1.609375 C 8.640625 -1.835938 9.132812 -2.171875 9.4375 -2.609375 C 9.4375 -2.609375 9.4375 -2.613281 9.4375 -2.625 C 9.4375 -2.632812 9.40625 -2.648438 9.34375 -2.671875 L 9.09375 -2.71875 C 8.644531 -2.800781 8.347656 -2.925781 8.203125 -3.09375 C 8.140625 -3.164062 8.109375 -3.257812 8.109375 -3.375 C 8.109375 -3.488281 8.144531 -3.59375 8.21875 -3.6875 C 8.300781 -3.78125 8.40625 -3.859375 8.53125 -3.921875 C 8.664062 -3.992188 8.8125 -4.054688 8.96875 -4.109375 C 9.132812 -4.160156 9.300781 -4.203125 9.46875 -4.234375 C 9.789062 -4.296875 10.0625 -4.328125 10.28125 -4.328125 C 10.507812 -4.328125 10.710938 -4.316406 10.890625 -4.296875 C 11.066406 -4.273438 11.226562 -4.234375 11.375 -4.171875 C 11.695312 -4.054688 11.859375 -3.867188 11.859375 -3.609375 C 11.859375 -3.273438 11.625 -2.859375 11.15625 -2.359375 C 10.632812 -1.816406 9.953125 -1.332031 9.109375 -0.90625 C 9.941406 -0.507812 10.773438 -0.3125 11.609375 -0.3125 C 11.796875 -0.3125 11.972656 -0.328125 12.140625 -0.359375 C 12.304688 -0.390625 12.398438 -0.40625 12.421875 -0.40625 C 12.535156 -0.40625 12.59375 -0.34375 12.59375 -0.21875 C 12.59375 -0.15625 12.570312 -0.109375 12.53125 -0.078125 C 12.5 -0.046875 12.441406 0.00390625 12.359375 0.078125 C 12.285156 0.148438 12.1875 0.234375 12.0625 0.328125 C 11.9375 0.421875 11.785156 0.519531 11.609375 0.625 C 11.429688 0.738281 11.238281 0.84375 11.03125 0.9375 C 10.53125 1.144531 10.039062 1.25 9.5625 1.25 C 8.4375 1.25 7.382812 0.84375 6.40625 0.03125 Z M 7.671875 -6.140625 C 7.671875 -6.421875 7.5 -6.5625 7.15625 -6.5625 C 6.65625 -6.5625 6.3125 -6.347656 6.125 -5.921875 C 6.070312 -5.785156 6.046875 -5.65625 6.046875 -5.53125 C 6.046875 -5.351562 6.054688 -5.148438 6.078125 -4.921875 C 6.804688 -5.234375 7.296875 -5.539062 7.546875 -5.84375 C 7.628906 -5.945312 7.671875 -6.046875 7.671875 -6.140625 Z M 4.3125 -2.921875 C 3.726562 -2.609375 3.4375 -2.3125 3.4375 -2.03125 C 3.4375 -1.863281 3.539062 -1.695312 3.75 -1.53125 C 4.007812 -1.332031 4.363281 -1.234375 4.8125 -1.234375 L 5.015625 -1.234375 C 5.085938 -1.234375 5.15625 -1.234375 5.21875 -1.234375 C 4.8125 -1.785156 4.507812 -2.347656 4.3125 -2.921875 Z M 4.3125 -2.921875 "/></g></g></g><g fill="#e5ded6" fill-opacity="1"><g transform="translate(194.212773, 206.372067)"><g/></g></g><g fill="#e5ded6" fill-opacity="1"><g transform="translate(198.770588, 206.372067)"><g><path d="M 9.765625 -7.40625 C 10.003906 -7.40625 10.125 -7.320312 10.125 -7.15625 C 10.125 -6.945312 9.957031 -6.644531 9.625 -6.25 L 9.53125 -6.125 C 9.238281 -5.769531 8.867188 -5.523438 8.421875 -5.390625 C 8.253906 -5.347656 8.125 -5.328125 8.03125 -5.328125 C 7.90625 -5.328125 7.804688 -5.328125 7.734375 -5.328125 C 7.660156 -5.335938 7.554688 -5.347656 7.421875 -5.359375 L 6.96875 -5.390625 C 6.570312 -5.421875 6.179688 -5.445312 5.796875 -5.46875 C 5.085938 -4.769531 4.484375 -4.007812 3.984375 -3.1875 C 3.804688 -2.882812 3.71875 -2.695312 3.71875 -2.625 C 3.71875 -2.28125 3.832031 -2.035156 4.0625 -1.890625 C 4.289062 -1.742188 4.597656 -1.671875 4.984375 -1.671875 C 5.378906 -1.671875 5.71875 -1.691406 6 -1.734375 C 6.28125 -1.773438 6.539062 -1.828125 6.78125 -1.890625 C 7.03125 -1.953125 7.257812 -2.019531 7.46875 -2.09375 C 7.675781 -2.175781 7.859375 -2.25 8.015625 -2.3125 C 8.171875 -2.382812 8.300781 -2.445312 8.40625 -2.5 L 8.625 -2.609375 C 8.726562 -2.640625 8.832031 -2.628906 8.9375 -2.578125 C 9.101562 -2.472656 9.1875 -2.351562 9.1875 -2.21875 C 9.1875 -2.082031 9.109375 -1.953125 8.953125 -1.828125 C 7.710938 -0.753906 6.300781 -0.101562 4.71875 0.125 C 4.207031 0.195312 3.71875 0.234375 3.25 0.234375 C 2.789062 0.234375 2.429688 0.207031 2.171875 0.15625 C 1.921875 0.113281 1.707031 0.0507812 1.53125 -0.03125 C 1.351562 -0.113281 1.210938 -0.207031 1.109375 -0.3125 C 1.015625 -0.425781 0.941406 -0.546875 0.890625 -0.671875 C 0.816406 -0.847656 0.78125 -1.054688 0.78125 -1.296875 C 0.78125 -1.546875 0.816406 -1.75 0.890625 -1.90625 C 0.960938 -2.0625 1.046875 -2.210938 1.140625 -2.359375 C 1.242188 -2.503906 1.359375 -2.648438 1.484375 -2.796875 C 1.609375 -2.941406 1.707031 -3.066406 1.78125 -3.171875 C 1.863281 -3.285156 1.953125 -3.394531 2.046875 -3.5 C 2.597656 -4.070312 2.96875 -4.453125 3.15625 -4.640625 L 4.078125 -5.515625 C 3.515625 -5.515625 3.125 -5.484375 2.90625 -5.421875 C 2.6875 -5.367188 2.5 -5.316406 2.34375 -5.265625 C 2.1875 -5.210938 2.023438 -5.15625 1.859375 -5.09375 C 1.703125 -5.039062 1.554688 -4.988281 1.421875 -4.9375 C 1.117188 -4.8125 0.941406 -4.726562 0.890625 -4.6875 C 0.835938 -4.644531 0.769531 -4.625 0.6875 -4.625 C 0.613281 -4.625 0.539062 -4.632812 0.46875 -4.65625 C 0.40625 -4.6875 0.347656 -4.726562 0.296875 -4.78125 C 0.179688 -4.875 0.125 -4.984375 0.125 -5.109375 C 0.125 -5.242188 0.164062 -5.367188 0.25 -5.484375 C 0.332031 -5.609375 0.457031 -5.75 0.625 -5.90625 C 0.800781 -6.0625 0.984375 -6.210938 1.171875 -6.359375 L 1.6875 -6.765625 C 1.84375 -6.890625 1.945312 -6.988281 2 -7.0625 C 2.15625 -7.289062 2.53125 -7.445312 3.125 -7.53125 C 3.300781 -7.550781 3.476562 -7.5625 3.65625 -7.5625 C 3.84375 -7.5625 4.09375 -7.546875 4.40625 -7.515625 C 4.71875 -7.492188 5.09375 -7.46875 5.53125 -7.4375 C 6.6875 -7.34375 7.539062 -7.296875 8.09375 -7.296875 C 8.644531 -7.296875 8.957031 -7.300781 9.03125 -7.3125 L 9.28125 -7.359375 C 9.507812 -7.390625 9.671875 -7.40625 9.765625 -7.40625 Z M 9.765625 -7.40625 "/></g></g></g><g fill="#e5ded6" fill-opacity="1"><g transform="translate(208.775287, 206.372067)"><g><path d="M 9.3125 -4.03125 C 9.425781 -4.03125 9.484375 -3.929688 9.484375 -3.734375 C 9.484375 -3.398438 9.253906 -2.972656 8.796875 -2.453125 L 8.484375 -2.140625 C 7.554688 -1.210938 6.6875 -0.59375 5.875 -0.28125 C 5.363281 -0.09375 5 -0.101562 4.78125 -0.3125 C 4.59375 -0.488281 4.445312 -0.769531 4.34375 -1.15625 L 4.203125 -1.625 L 3.0625 -0.921875 L 2.40625 -0.546875 C 1.625 -0.117188 1.035156 0.09375 0.640625 0.09375 C 0.128906 0.09375 -0.289062 -0.0976562 -0.625 -0.484375 C -0.945312 -0.859375 -1.109375 -1.285156 -1.109375 -1.765625 C -1.109375 -2.242188 -0.914062 -2.671875 -0.53125 -3.046875 C 0.0195312 -3.585938 0.882812 -4.082031 2.0625 -4.53125 C 3.175781 -4.945312 4.078125 -5.15625 4.765625 -5.15625 C 4.992188 -5.15625 5.109375 -5.039062 5.109375 -4.8125 C 5.109375 -4.65625 5.078125 -4.535156 5.015625 -4.453125 C 4.953125 -4.378906 4.828125 -4.300781 4.640625 -4.21875 L 3.96875 -3.921875 C 2.96875 -3.503906 2.234375 -3.070312 1.765625 -2.625 C 1.640625 -2.5 1.578125 -2.375 1.578125 -2.25 C 1.578125 -2.132812 1.671875 -2.078125 1.859375 -2.078125 C 2.046875 -2.078125 2.476562 -2.28125 3.15625 -2.6875 L 3.59375 -2.9375 C 4.289062 -3.351562 4.867188 -3.5625 5.328125 -3.5625 C 5.722656 -3.5625 5.984375 -3.390625 6.109375 -3.046875 C 6.140625 -2.953125 6.171875 -2.859375 6.203125 -2.765625 C 6.234375 -2.671875 6.265625 -2.585938 6.296875 -2.515625 C 6.359375 -2.335938 6.414062 -2.25 6.46875 -2.25 C 6.519531 -2.25 6.59375 -2.273438 6.6875 -2.328125 C 6.78125 -2.378906 6.882812 -2.441406 7 -2.515625 C 7.125 -2.597656 7.25 -2.6875 7.375 -2.78125 L 8.015625 -3.3125 C 8.585938 -3.789062 9.019531 -4.03125 9.3125 -4.03125 Z M 9.3125 -4.03125 "/></g></g></g><g fill="#e5ded6" fill-opacity="1"><g transform="translate(216.969714, 206.372067)"><g><path d="M 3.40625 -5.21875 C 3.4375 -5.144531 3.453125 -5.050781 3.453125 -4.9375 C 3.453125 -4.820312 3.394531 -4.691406 3.28125 -4.546875 C 3.375 -4.453125 3.488281 -4.335938 3.625 -4.203125 C 3.769531 -4.078125 3.914062 -3.941406 4.0625 -3.796875 C 4.382812 -3.429688 4.546875 -3.078125 4.546875 -2.734375 C 4.546875 -2.515625 4.394531 -2.25 4.09375 -1.9375 C 4 -1.832031 3.894531 -1.738281 3.78125 -1.65625 C 4.15625 -1.789062 4.601562 -2.070312 5.125 -2.5 L 5.75 -3.015625 C 6.113281 -3.316406 6.359375 -3.488281 6.484375 -3.53125 C 6.609375 -3.582031 6.71875 -3.609375 6.8125 -3.609375 C 6.914062 -3.609375 7.015625 -3.582031 7.109375 -3.53125 C 7.203125 -3.488281 7.25 -3.410156 7.25 -3.296875 C 7.25 -3.179688 7.234375 -3.070312 7.203125 -2.96875 C 7.171875 -2.863281 7.128906 -2.765625 7.078125 -2.671875 C 7.003906 -2.546875 6.898438 -2.414062 6.765625 -2.28125 C 6.390625 -1.925781 6.023438 -1.597656 5.671875 -1.296875 C 5.316406 -1.003906 4.953125 -0.753906 4.578125 -0.546875 C 3.785156 -0.0976562 2.90625 0.125 1.9375 0.125 C 1.394531 0.125 0.925781 -0.015625 0.53125 -0.296875 C 0.375 -0.410156 0.25 -0.53125 0.15625 -0.65625 C 0.0703125 -0.78125 0.03125 -0.875 0.03125 -0.9375 C 0.03125 -1.007812 0.0507812 -1.082031 0.09375 -1.15625 C 0.144531 -1.238281 0.207031 -1.316406 0.28125 -1.390625 C 0.363281 -1.472656 0.453125 -1.554688 0.546875 -1.640625 C 0.648438 -1.722656 0.757812 -1.796875 0.875 -1.859375 C 1.125 -2.015625 1.304688 -2.09375 1.421875 -2.09375 C 1.546875 -2.09375 1.640625 -2.078125 1.703125 -2.046875 C 1.773438 -2.015625 1.835938 -1.976562 1.890625 -1.9375 C 2.035156 -1.84375 2.140625 -1.796875 2.203125 -1.796875 C 2.347656 -1.796875 2.421875 -1.894531 2.421875 -2.09375 C 2.421875 -2.28125 2.320312 -2.503906 2.125 -2.765625 C 2.039062 -2.867188 1.957031 -2.972656 1.875 -3.078125 C 1.789062 -3.179688 1.71875 -3.285156 1.65625 -3.390625 C 1.539062 -3.253906 1.398438 -3.117188 1.234375 -2.984375 L 0.71875 -2.53125 C 0.351562 -2.21875 0.015625 -2.070312 -0.296875 -2.09375 C -0.472656 -2.101562 -0.5625 -2.300781 -0.5625 -2.6875 C -0.5625 -2.75 -0.554688 -2.816406 -0.546875 -2.890625 C -0.523438 -2.992188 -0.414062 -3.125 -0.21875 -3.28125 C -0.0195312 -3.445312 0.125 -3.554688 0.21875 -3.609375 C 0.3125 -3.671875 0.390625 -3.722656 0.453125 -3.765625 L 1.03125 -4.15625 C 1.03125 -4.519531 1.238281 -4.851562 1.65625 -5.15625 C 2.0625 -5.445312 2.457031 -5.59375 2.84375 -5.59375 C 3.09375 -5.59375 3.28125 -5.46875 3.40625 -5.21875 Z M 3.40625 -5.21875 "/></g></g></g><g fill="#e5ded6" fill-opacity="1"><g transform="translate(223.343157, 206.372067)"><g><path d="M 5.921875 -3.671875 C 6.273438 -3.671875 6.453125 -3.550781 6.453125 -3.3125 C 6.453125 -3.070312 6.285156 -2.769531 5.953125 -2.40625 L 5.703125 -2.140625 C 5.378906 -1.804688 5.003906 -1.484375 4.578125 -1.171875 C 4.160156 -0.859375 3.789062 -0.609375 3.46875 -0.421875 C 2.71875 -0.015625 2.039062 0.1875 1.4375 0.1875 C 0.863281 0.1875 0.394531 0.015625 0.03125 -0.328125 C -0.28125 -0.617188 -0.4375 -0.925781 -0.4375 -1.25 C -0.4375 -1.582031 -0.398438 -1.910156 -0.328125 -2.234375 C -0.265625 -2.566406 -0.179688 -2.890625 -0.078125 -3.203125 C 0.117188 -3.828125 0.34375 -4.363281 0.59375 -4.8125 C 0.65625 -4.9375 0.6875 -5.015625 0.6875 -5.046875 L 0 -5.046875 C -0.257812 -5.046875 -0.460938 -5.101562 -0.609375 -5.21875 C -0.753906 -5.34375 -0.828125 -5.484375 -0.828125 -5.640625 C -0.828125 -5.796875 -0.796875 -5.910156 -0.734375 -5.984375 C -0.679688 -6.054688 -0.609375 -6.109375 -0.515625 -6.140625 C -0.398438 -6.179688 -0.222656 -6.203125 0.015625 -6.203125 L 1.328125 -6.203125 C 1.359375 -6.210938 1.414062 -6.289062 1.5 -6.4375 L 1.828125 -7 C 1.960938 -7.25 2.101562 -7.429688 2.25 -7.546875 C 2.394531 -7.671875 2.5625 -7.734375 2.75 -7.734375 C 2.9375 -7.734375 3.09375 -7.710938 3.21875 -7.671875 C 3.351562 -7.640625 3.46875 -7.597656 3.5625 -7.546875 C 3.738281 -7.429688 3.828125 -7.304688 3.828125 -7.171875 C 3.828125 -7.109375 3.804688 -7.03125 3.765625 -6.9375 L 3.46875 -6.203125 L 6.015625 -6.203125 C 6.234375 -6.203125 6.34375 -6.09375 6.34375 -5.875 C 6.34375 -5.320312 5.859375 -5.046875 4.890625 -5.046875 L 2.921875 -5.046875 C 2.878906 -5.023438 2.804688 -4.921875 2.703125 -4.734375 L 2.46875 -4.296875 C 2.40625 -4.179688 2.363281 -4.09375 2.34375 -4.03125 L 2.21875 -3.78125 C 1.976562 -3.238281 1.859375 -2.847656 1.859375 -2.609375 C 1.859375 -2.367188 1.921875 -2.164062 2.046875 -2 C 2.171875 -1.84375 2.335938 -1.765625 2.546875 -1.765625 C 2.765625 -1.765625 2.972656 -1.804688 3.171875 -1.890625 C 3.378906 -1.972656 3.578125 -2.070312 3.765625 -2.1875 C 4.117188 -2.40625 4.394531 -2.609375 4.59375 -2.796875 C 4.789062 -2.984375 4.957031 -3.125 5.09375 -3.21875 C 5.09375 -3.21875 5.21875 -3.304688 5.46875 -3.484375 C 5.664062 -3.609375 5.816406 -3.671875 5.921875 -3.671875 Z M 5.921875 -3.671875 "/></g></g></g><g fill="#e5ded6" fill-opacity="1"><g transform="translate(228.806108, 206.372067)"><g><path d="M 1.90625 -2.28125 C 1.90625 -2.113281 2.015625 -2.03125 2.234375 -2.03125 C 2.679688 -2.03125 3.4375 -2.582031 4.5 -3.6875 L 5.015625 -4.21875 C 5.367188 -4.5625 5.601562 -4.734375 5.71875 -4.734375 C 5.832031 -4.734375 5.929688 -4.710938 6.015625 -4.671875 C 6.109375 -4.640625 6.191406 -4.59375 6.265625 -4.53125 C 6.398438 -4.40625 6.46875 -4.269531 6.46875 -4.125 C 6.46875 -3.988281 6.453125 -3.832031 6.421875 -3.65625 C 6.390625 -3.488281 6.34375 -3.300781 6.28125 -3.09375 C 6.164062 -2.695312 5.953125 -2.164062 5.640625 -1.5 L 5.421875 -1.03125 L 6.34375 -1.859375 L 8.203125 -3.453125 C 8.390625 -3.597656 8.546875 -3.671875 8.671875 -3.671875 C 8.941406 -3.671875 9.078125 -3.539062 9.078125 -3.28125 C 9.078125 -3.007812 8.90625 -2.664062 8.5625 -2.25 C 8.457031 -2.113281 8.34375 -1.988281 8.21875 -1.875 L 6.953125 -0.78125 L 4.484375 1.3125 C 4.265625 1.5 4.097656 1.648438 3.984375 1.765625 C 3.847656 1.972656 3.742188 2.128906 3.671875 2.234375 C 3.597656 2.335938 3.523438 2.445312 3.453125 2.5625 C 3.390625 2.6875 3.320312 2.796875 3.25 2.890625 C 3.101562 3.078125 2.957031 3.171875 2.8125 3.171875 C 2.65625 3.171875 2.503906 3.109375 2.359375 2.984375 C 2.097656 2.742188 1.96875 2.53125 1.96875 2.34375 C 1.96875 2.164062 2.015625 1.957031 2.109375 1.71875 C 2.210938 1.476562 2.347656 1.203125 2.515625 0.890625 L 3.640625 -1.203125 C 3.097656 -0.710938 2.671875 -0.382812 2.359375 -0.21875 C 2.046875 -0.0625 1.78125 0.0390625 1.5625 0.09375 C 1.351562 0.144531 1.128906 0.171875 0.890625 0.171875 C 0.660156 0.171875 0.453125 0.117188 0.265625 0.015625 C 0.0859375 -0.078125 -0.0546875 -0.207031 -0.171875 -0.375 C -0.398438 -0.695312 -0.515625 -1.117188 -0.515625 -1.640625 C -0.515625 -2.203125 -0.375 -2.75 -0.09375 -3.28125 C 0.175781 -3.8125 0.53125 -4.238281 0.96875 -4.5625 C 1.425781 -4.90625 1.898438 -5.078125 2.390625 -5.078125 C 2.878906 -5.078125 3.125 -4.882812 3.125 -4.5 C 3.125 -4.257812 2.921875 -3.90625 2.515625 -3.4375 C 2.109375 -2.96875 1.90625 -2.582031 1.90625 -2.28125 Z M 1.90625 -2.28125 "/></g></g></g><g fill="#e5ded6" fill-opacity="1"><g transform="translate(106.020693, 190.332938)"><g><path d="M 1.171875 -13.078125 L 1.171875 -16.796875 L 11.59375 -16.796875 C 12.726562 -16.796875 13.757812 -16.628906 14.6875 -16.296875 C 15.613281 -15.960938 16.351562 -15.453125 16.90625 -14.765625 C 17.457031 -14.078125 17.734375 -13.195312 17.734375 -12.125 C 17.734375 -11.476562 17.601562 -10.851562 17.34375 -10.25 C 17.09375 -9.65625 16.597656 -9.195312 15.859375 -8.875 C 16.648438 -8.457031 17.234375 -7.882812 17.609375 -7.15625 C 17.992188 -6.4375 18.1875 -5.695312 18.1875 -4.9375 C 18.1875 -4 17.992188 -3.210938 17.609375 -2.578125 C 17.234375 -1.941406 16.722656 -1.4375 16.078125 -1.0625 C 15.441406 -0.6875 14.734375 -0.414062 13.953125 -0.25 C 13.179688 -0.0820312 12.410156 0 11.640625 0 L 1.171875 0 L 1.171875 -3.75 L 3 -3.75 L 3 -13.078125 Z M 7.65625 -10.3125 L 11.421875 -10.3125 C 11.828125 -10.3125 12.1875 -10.425781 12.5 -10.65625 C 12.820312 -10.894531 12.984375 -11.238281 12.984375 -11.6875 C 12.984375 -12.039062 12.851562 -12.359375 12.59375 -12.640625 C 12.34375 -12.929688 11.984375 -13.078125 11.515625 -13.078125 L 7.65625 -13.078125 Z M 7.65625 -3.625 L 11.65625 -3.625 C 12.269531 -3.625 12.722656 -3.800781 13.015625 -4.15625 C 13.316406 -4.507812 13.46875 -4.890625 13.46875 -5.296875 C 13.46875 -5.859375 13.296875 -6.285156 12.953125 -6.578125 C 12.609375 -6.867188 12.175781 -7.015625 11.65625 -7.015625 L 7.65625 -7.015625 Z M 7.65625 -3.625 "/></g></g></g><g fill="#e5ded6" fill-opacity="1"><g transform="translate(124.947422, 190.332938)"><g><path d="M 1.078125 -13.078125 L 1.078125 -16.796875 L 9.8125 -16.796875 L 9.8125 -13.078125 L 7.828125 -13.078125 L 7.828125 -3.75 L 9.8125 -3.75 L 9.8125 0 L 1.078125 0 L 1.078125 -3.75 L 3.046875 -3.75 L 3.046875 -13.078125 Z M 1.078125 -13.078125 "/></g></g></g><g fill="#e5ded6" fill-opacity="1"><g transform="translate(135.766117, 190.332938)"><g><path d="M 12.59375 -12.578125 C 12.164062 -12.796875 11.726562 -12.941406 11.28125 -13.015625 C 10.832031 -13.085938 10.425781 -13.125 10.0625 -13.125 C 9.164062 -13.125 8.359375 -12.957031 7.640625 -12.625 C 6.929688 -12.300781 6.375 -11.789062 5.96875 -11.09375 C 5.570312 -10.40625 5.375 -9.507812 5.375 -8.40625 C 5.375 -7.34375 5.585938 -6.46875 6.015625 -5.78125 C 6.453125 -5.09375 7.03125 -4.582031 7.75 -4.25 C 8.46875 -3.914062 9.242188 -3.75 10.078125 -3.75 C 10.609375 -3.75 11.132812 -3.820312 11.65625 -3.96875 C 12.175781 -4.125 12.660156 -4.363281 13.109375 -4.6875 L 13.109375 -5.921875 L 8.90625 -5.921875 L 8.90625 -9.234375 L 17.109375 -9.234375 L 17.109375 -3.09375 C 16.753906 -2.394531 16.210938 -1.789062 15.484375 -1.28125 C 14.765625 -0.78125 13.921875 -0.398438 12.953125 -0.140625 C 11.984375 0.109375 10.953125 0.234375 9.859375 0.234375 C 8.035156 0.234375 6.429688 -0.0859375 5.046875 -0.734375 C 3.660156 -1.378906 2.582031 -2.34375 1.8125 -3.625 C 1.050781 -4.90625 0.671875 -6.5 0.671875 -8.40625 C 0.671875 -10.289062 1.082031 -11.875 1.90625 -13.15625 C 2.726562 -14.4375 3.847656 -15.40625 5.265625 -16.0625 C 6.679688 -16.71875 8.28125 -17.046875 10.0625 -17.046875 C 11.40625 -17.046875 12.617188 -16.835938 13.703125 -16.421875 C 14.796875 -16.015625 15.8125 -15.34375 16.75 -14.40625 L 16.734375 -10.75 L 12.75 -10.75 Z M 12.59375 -12.578125 "/></g></g></g><g fill="#e5ded6" fill-opacity="1"><g transform="translate(153.805278, 190.332938)"><g/></g></g><g fill="#e5ded6" fill-opacity="1"><g transform="translate(158.722872, 190.332938)"><g><path d="M 1.171875 -13.078125 L 1.171875 -16.796875 L 11.59375 -16.796875 C 12.726562 -16.796875 13.757812 -16.628906 14.6875 -16.296875 C 15.613281 -15.960938 16.351562 -15.453125 16.90625 -14.765625 C 17.457031 -14.078125 17.734375 -13.195312 17.734375 -12.125 C 17.734375 -11.476562 17.601562 -10.851562 17.34375 -10.25 C 17.09375 -9.65625 16.597656 -9.195312 15.859375 -8.875 C 16.648438 -8.457031 17.234375 -7.882812 17.609375 -7.15625 C 17.992188 -6.4375 18.1875 -5.695312 18.1875 -4.9375 C 18.1875 -4 17.992188 -3.210938 17.609375 -2.578125 C 17.234375 -1.941406 16.722656 -1.4375 16.078125 -1.0625 C 15.441406 -0.6875 14.734375 -0.414062 13.953125 -0.25 C 13.179688 -0.0820312 12.410156 0 11.640625 0 L 1.171875 0 L 1.171875 -3.75 L 3 -3.75 L 3 -13.078125 Z M 7.65625 -10.3125 L 11.421875 -10.3125 C 11.828125 -10.3125 12.1875 -10.425781 12.5 -10.65625 C 12.820312 -10.894531 12.984375 -11.238281 12.984375 -11.6875 C 12.984375 -12.039062 12.851562 -12.359375 12.59375 -12.640625 C 12.34375 -12.929688 11.984375 -13.078125 11.515625 -13.078125 L 7.65625 -13.078125 Z M 7.65625 -3.625 L 11.65625 -3.625 C 12.269531 -3.625 12.722656 -3.800781 13.015625 -4.15625 C 13.316406 -4.507812 13.46875 -4.890625 13.46875 -5.296875 C 13.46875 -5.859375 13.296875 -6.285156 12.953125 -6.578125 C 12.609375 -6.867188 12.175781 -7.015625 11.65625 -7.015625 L 7.65625 -7.015625 Z M 7.65625 -3.625 "/></g></g></g><g fill="#e5ded6" fill-opacity="1"><g transform="translate(177.649602, 190.332938)"><g><path d="M 11.453125 -13.078125 L 11.453125 -16.796875 L 20.109375 -16.796875 L 20.109375 -13.078125 L 18.171875 -13.078125 L 18.171875 -7.53125 C 18.179688 -5.882812 17.867188 -4.476562 17.234375 -3.3125 C 16.609375 -2.15625 15.703125 -1.273438 14.515625 -0.671875 C 13.335938 -0.0664062 11.921875 0.234375 10.265625 0.234375 C 7.785156 0.234375 5.84375 -0.421875 4.4375 -1.734375 C 3.03125 -3.054688 2.328125 -5.003906 2.328125 -7.578125 L 2.328125 -13.078125 L 0.390625 -13.078125 L 0.390625 -16.796875 L 9.078125 -16.796875 L 9.078125 -13.078125 L 7.03125 -13.078125 L 7.03125 -7.578125 C 7.03125 -6.265625 7.328125 -5.304688 7.921875 -4.703125 C 8.515625 -4.109375 9.296875 -3.8125 10.265625 -3.8125 C 11.234375 -3.8125 12.007812 -4.109375 12.59375 -4.703125 C 13.175781 -5.304688 13.46875 -6.25 13.46875 -7.53125 L 13.46875 -13.078125 Z M 11.453125 -13.078125 "/></g></g></g><g fill="#e5ded6" fill-opacity="1"><g transform="translate(198.135566, 190.332938)"><g><path d="M 3.03125 -13.078125 L 1.015625 -13.078125 L 1.015625 -16.796875 L 11.234375 -16.796875 C 12.671875 -16.796875 13.875 -16.523438 14.84375 -15.984375 C 15.8125 -15.441406 16.539062 -14.726562 17.03125 -13.84375 C 17.519531 -12.96875 17.765625 -12.023438 17.765625 -11.015625 C 17.765625 -10.023438 17.539062 -9.109375 17.09375 -8.265625 C 16.65625 -7.429688 15.789062 -6.707031 14.5 -6.09375 L 16.265625 -3.75 L 18.453125 -3.75 L 18.453125 0 L 11.6875 0 L 11.6875 -2.421875 L 9.59375 -5.421875 L 7.75 -5.421875 L 7.75 -3.5 L 9.625 -3.359375 L 9.625 0 L 1.015625 0 L 1.015625 -3.75 L 3.03125 -3.75 Z M 7.75 -13.015625 L 7.75 -8.96875 L 11.25 -8.96875 C 11.84375 -8.96875 12.289062 -9.164062 12.59375 -9.5625 C 12.90625 -9.96875 13.0625 -10.441406 13.0625 -10.984375 C 13.0625 -11.535156 12.910156 -12.007812 12.609375 -12.40625 C 12.316406 -12.8125 11.847656 -13.015625 11.203125 -13.015625 Z M 7.75 -13.015625 "/></g></g></g><g fill="#e5ded6" fill-opacity="1"><g transform="translate(217.254202, 190.332938)"><g><path d="M 12.59375 -12.578125 C 12.164062 -12.796875 11.726562 -12.941406 11.28125 -13.015625 C 10.832031 -13.085938 10.425781 -13.125 10.0625 -13.125 C 9.164062 -13.125 8.359375 -12.957031 7.640625 -12.625 C 6.929688 -12.300781 6.375 -11.789062 5.96875 -11.09375 C 5.570312 -10.40625 5.375 -9.507812 5.375 -8.40625 C 5.375 -7.34375 5.585938 -6.46875 6.015625 -5.78125 C 6.453125 -5.09375 7.03125 -4.582031 7.75 -4.25 C 8.46875 -3.914062 9.242188 -3.75 10.078125 -3.75 C 10.609375 -3.75 11.132812 -3.820312 11.65625 -3.96875 C 12.175781 -4.125 12.660156 -4.363281 13.109375 -4.6875 L 13.109375 -5.921875 L 8.90625 -5.921875 L 8.90625 -9.234375 L 17.109375 -9.234375 L 17.109375 -3.09375 C 16.753906 -2.394531 16.210938 -1.789062 15.484375 -1.28125 C 14.765625 -0.78125 13.921875 -0.398438 12.953125 -0.140625 C 11.984375 0.109375 10.953125 0.234375 9.859375 0.234375 C 8.035156 0.234375 6.429688 -0.0859375 5.046875 -0.734375 C 3.660156 -1.378906 2.582031 -2.34375 1.8125 -3.625 C 1.050781 -4.90625 0.671875 -6.5 0.671875 -8.40625 C 0.671875 -10.289062 1.082031 -11.875 1.90625 -13.15625 C 2.726562 -14.4375 3.847656 -15.40625 5.265625 -16.0625 C 6.679688 -16.71875 8.28125 -17.046875 10.0625 -17.046875 C 11.40625 -17.046875 12.617188 -16.835938 13.703125 -16.421875 C 14.796875 -16.015625 15.8125 -15.34375 16.75 -14.40625 L 16.734375 -10.75 L 12.75 -10.75 Z M 12.59375 -12.578125 "/></g></g></g><g fill="#e5ded6" fill-opacity="1"><g transform="translate(235.293363, 190.332938)"><g><path d="M 12.578125 -5.6875 L 16.171875 -5.6875 L 16.171875 0 L 1.125 0 L 1.125 -3.75 L 2.96875 -3.75 L 2.96875 -13.078125 L 1.125 -13.078125 L 1.125 -16.796875 L 15.859375 -16.796875 L 15.859375 -11.15625 L 12.265625 -11.15625 L 12.171875 -12.84375 L 7.6875 -12.84375 L 7.6875 -10.25 L 11.71875 -10.25 L 11.71875 -6.546875 L 7.6875 -6.546875 L 7.6875 -4.015625 L 12.484375 -4.015625 Z M 12.578125 -5.6875 "/></g></g></g><g fill="#e5ded6" fill-opacity="1"><g transform="translate(252.349006, 190.332938)"><g><path d="M 3.03125 -13.078125 L 1.015625 -13.078125 L 1.015625 -16.796875 L 11.234375 -16.796875 C 12.671875 -16.796875 13.875 -16.523438 14.84375 -15.984375 C 15.8125 -15.441406 16.539062 -14.726562 17.03125 -13.84375 C 17.519531 -12.96875 17.765625 -12.023438 17.765625 -11.015625 C 17.765625 -10.023438 17.539062 -9.109375 17.09375 -8.265625 C 16.65625 -7.429688 15.789062 -6.707031 14.5 -6.09375 L 16.265625 -3.75 L 18.453125 -3.75 L 18.453125 0 L 11.6875 0 L 11.6875 -2.421875 L 9.59375 -5.421875 L 7.75 -5.421875 L 7.75 -3.5 L 9.625 -3.359375 L 9.625 0 L 1.015625 0 L 1.015625 -3.75 L 3.03125 -3.75 Z M 7.75 -13.015625 L 7.75 -8.96875 L 11.25 -8.96875 C 11.84375 -8.96875 12.289062 -9.164062 12.59375 -9.5625 C 12.90625 -9.96875 13.0625 -10.441406 13.0625 -10.984375 C 13.0625 -11.535156 12.910156 -12.007812 12.609375 -12.40625 C 12.316406 -12.8125 11.847656 -13.015625 11.203125 -13.015625 Z M 7.75 -13.015625 "/></g></g></g></svg>